# xmcd
#
# Track frame offsets: 
#        150
#        11607
#        30510
#        42570
#        64660
#        74920
#        83730
#        96632
#        108622
#        124595
#        137850
#        154375
#        165607
#        184117
#        198767
#        224165
#        235495
#        247277
#        260960
#        278317
#        295882
#        298980
#        308010
#        319780
#
# Disc length: 4641 seconds
#
# Revision: 5
# Processed by: cddbd v1.5.2PL0 Copyright (c) Steve Scherf et al.
# Submitted via: ExactAudioCopy v1.0b1
#
DISCID=84121f18
DTITLE=Paul McCartney - Paul Is Live
DYEAR=1993
DGENRE=Rock
TTITLE0=Drive My Car
TTITLE1=Let Me Roll It
TTITLE2=Looking for Changes
TTITLE3=Peace in the Neighborhood
TTITLE4=All My Loving
TTITLE5=Robbie's Bit (Thanks Chet)
TTITLE6=Good Rockin' Tonight
TTITLE7=We Can Work It Out
TTITLE8=Hope of Deliverance
TTITLE9=Michelle
TTITLE10=Biker Like an Icon
TTITLE11=Here, There and Everywhere
TTITLE12=My Love
TTITLE13=Magical Mystery Tour
TTITLE14=C'mon People
TTITLE15=Lady Madonna
TTITLE16=Paperback Writer
TTITLE17=Penny Lane
TTITLE18=Live and Let Die
TTITLE19=Kansas City
TTITLE20=Welcome to Soundcheck
TTITLE21=Hotel In Benidorm
TTITLE22=I Wanna Be Your Man
TTITLE23=A Fine Day
EXTD=
EXTT0=
EXTT1=
EXTT2=
EXTT3=
EXTT4=
EXTT5=
EXTT6=
EXTT7=
EXTT8=
EXTT9=
EXTT10=
EXTT11=
EXTT12=
EXTT13=
EXTT14=
EXTT15=
EXTT16=
EXTT17=
EXTT18=
EXTT19=
EXTT20=
EXTT21=
EXTT22=
EXTT23=
PLAYORDER=
